<svg width="16" height="16" viewBox="0 0 16 16" fill="none" xmlns="http://www.w3.org/2000/svg">
<g opacity="0.5">
<path d="M8.33333 1.33333C9.754 1.33333 11 2.48667 11 3.80133C11 5.168 9.85733 7.09533 8.33333 9.50867C6.80933 7.09533 5.66667 5.168 5.66667 3.80133C5.66667 2.48667 6.91267 1.33333 8.33333 1.33333ZM8.33333 0C6.23467 0 4.33333 1.702 4.33333 3.80133C4.33333 5.9 6.068 8.406 8.33333 12C10.5987 8.406 12.3333 5.9 12.3333 3.80133C12.3333 1.702 10.4327 0 8.33333 0ZM8.33333 5.33333C7.59667 5.33333 7 4.73667 7 4C7 3.26333 7.59667 2.66667 8.33333 2.66667C9.07 2.66667 9.66667 3.26333 9.66667 4C9.66667 4.73667 9.07 5.33333 8.33333 5.33333ZM13.6667 13.3333C13.6667 14.806 11.2793 16 8.33333 16C5.38733 16 3 14.806 3 13.3333C3 12.2653 4.25867 11.3467 6.072 10.9207L6.84133 12.1367C6.574 12.182 6.304 12.2267 6.056 12.298C3.848 12.9307 3.754 13.704 6.042 14.366C7.434 14.768 9.22667 14.7693 10.6247 14.3653C13.0373 13.6673 12.734 12.8487 10.446 12.254C10.2487 12.2027 10.032 12.1753 9.822 12.14L10.5927 10.9213C12.408 11.3467 13.6667 12.2653 13.6667 13.3333Z" fill="#0F172A"/>
</g>
</svg>
