<svg width="16" height="16" viewBox="0 0 16 16" fill="none" xmlns="http://www.w3.org/2000/svg">
<g opacity="0.5" clip-path="url(#clip0_3_126)">
<path d="M7.09596 11.3866C9.00663 10.9453 10.122 10.5593 9.25996 8.93198C6.63863 3.98065 8.56529 1.33331 11.334 1.33331C14.1573 1.33331 16.0366 4.08265 13.4073 8.93198C12.5193 10.5686 13.6986 10.9546 15.5686 11.3866C17.224 11.7693 17.3333 12.578 17.3333 13.9793V14.6666H5.33329C5.33329 12.8366 5.18663 11.828 7.09596 11.3866ZM-1.33337 14.6666H3.87263C3.84929 9.21531 6.16329 11.1246 6.16329 7.24865C6.16329 5.57465 5.07063 4.66665 3.66463 4.66665C1.58796 4.66665 0.143293 6.65265 2.10929 10.366C2.75529 11.586 1.42196 11.876 -0.0113741 12.2066C-1.25271 12.4933 -1.33337 13.1 -1.33337 14.1513V14.6666Z" fill="#0F172A"/>
</g>
<defs>
<clipPath id="clip0_3_126">
<rect width="16" height="16" fill="white"/>
</clipPath>
</defs>
</svg>
