<svg width="16" height="16" viewBox="0 0 16 16" fill="none" xmlns="http://www.w3.org/2000/svg">
<g clip-path="url(#clip0_3_134)">
<path opacity="0.5" d="M7.9996 0C12.4151 0 16 3.5849 16 8.0004C16 12.4151 12.4151 16 7.9996 16C3.5849 16 0 12.4151 0 8.0004C0 3.5849 3.5849 0 7.9996 0ZM7.9996 1.2003C4.24666 1.2003 1.2003 4.24746 1.2003 8.0004C1.2003 11.7533 4.24666 14.7997 7.9996 14.7997C11.7525 14.7997 14.7997 11.7533 14.7997 8.0004C14.7997 4.24746 11.7525 1.2003 7.9996 1.2003ZM7.40185 7.40185H4.60115C4.26987 7.40185 4.001 7.67072 4.001 8.002C4.001 8.33328 4.26987 8.60215 4.60115 8.60215H7.40185V11.4029C7.40185 11.7341 7.67072 12.003 8.002 12.003C8.33328 12.003 8.60215 11.7341 8.60215 11.4029V8.60215H11.4029C11.7341 8.60215 12.003 8.33328 12.003 8.002C12.003 7.67072 11.7341 7.40185 11.4029 7.40185H8.60215V4.60115C8.60215 4.26987 8.33328 4.001 8.002 4.001C7.67072 4.001 7.40185 4.26987 7.40185 4.60115V7.40185Z" fill="#0F172A"/>
</g>
<defs>
<clipPath id="clip0_3_134">
<rect width="16" height="16" fill="white"/>
</clipPath>
</defs>
</svg>
