<svg width="59" height="56" viewBox="0 0 59 56" fill="none" xmlns="http://www.w3.org/2000/svg">
<g opacity="0.3" clip-path="url(#clip0_3_278)">
<path d="M12.6443 11.6667H5.38989V9.33333H12.6443V11.6667ZM31.9895 23.3333C27.9899 23.3333 24.7351 26.474 24.7351 30.3333C24.7351 34.1927 27.9899 37.3333 31.9895 37.3333C35.9892 37.3333 39.244 34.1927 39.244 30.3333C39.244 26.474 35.9892 23.3333 31.9895 23.3333ZM58.5892 14V49H0.553589V14H14.8932C16.511 14 18.0199 13.2207 18.917 11.921L22.3169 7H41.6621L45.0621 11.921C45.9592 13.2207 47.4681 14 49.0859 14H58.5892ZM12.6443 23.3333C12.6443 22.0453 11.5634 21 10.2262 21C8.88895 21 7.80804 22.0453 7.80804 23.3333C7.80804 24.6213 8.88895 25.6667 10.2262 25.6667C11.5634 25.6667 12.6443 24.6213 12.6443 23.3333ZM44.0803 30.3333C44.0803 23.891 38.6661 18.6667 31.9895 18.6667C25.313 18.6667 19.8988 23.891 19.8988 30.3333C19.8988 36.7757 25.313 42 31.9895 42C38.6661 42 44.0803 36.7757 44.0803 30.3333Z" fill="#0F172A"/>
</g>
<defs>
<clipPath id="clip0_3_278">
<rect width="58.0356" height="56" fill="white" transform="translate(0.553589)"/>
</clipPath>
</defs>
</svg>
