<svg width="59" height="56" viewBox="0 0 59 56" fill="none" xmlns="http://www.w3.org/2000/svg">
<g opacity="0.3" clip-path="url(#clip0_3_260)">
<path d="M53.5931 30.6273L58.2166 28L53.5931 25.3727C51.1242 23.968 50.2754 20.916 51.6876 18.508L54.3307 14L48.9624 13.9533C46.0969 13.93 43.7803 11.6947 43.7561 8.92967L43.7077 3.752L39.0359 6.30233C36.5428 7.66267 33.3774 6.846 31.9241 4.46367L29.1988 0L26.4736 4.46367C25.0179 6.846 21.8549 7.665 19.3618 6.30233L14.6899 3.752L14.6416 8.92967C14.6174 11.6947 12.3008 13.93 9.43529 13.9533L4.067 14L6.71004 18.508C8.12224 20.916 7.27347 23.968 4.80453 25.3727L0.18103 28L4.80453 30.6273C7.27347 32.032 8.12224 35.084 6.71004 37.492L4.067 42L9.43529 42.0467C12.3008 42.07 14.6174 44.3053 14.6416 47.0703L14.6899 52.248L19.3618 49.6977C21.8549 48.3373 25.0203 49.154 26.4736 51.5363L29.1988 56L31.9241 51.5363C33.3798 49.154 36.5428 48.335 39.0359 49.6977L43.7077 52.248L43.7561 47.0703C43.7827 44.3053 46.0993 42.07 48.9624 42.0467L54.3307 42L51.6876 37.492C50.2754 35.0863 51.1218 32.032 53.5931 30.6273ZM29.1287 46.6667C18.4622 46.6667 9.78351 38.2923 9.78351 28C9.78351 17.7077 18.4598 9.33333 29.1287 9.33333C39.7976 9.33333 48.4739 17.7077 48.4739 28C48.4739 38.2923 39.7952 46.6667 29.1287 46.6667ZM43.7077 28C43.7077 35.7303 37.2102 42 29.1988 42C21.1875 42 14.6899 35.7303 14.6899 28C14.6899 20.2697 21.1875 14 29.1988 14C37.2102 14 43.7077 20.2697 43.7077 28Z" fill="#0F172A"/>
</g>
<defs>
<clipPath id="clip0_3_260">
<rect width="58.0356" height="56" fill="white" transform="translate(0.18103)"/>
</clipPath>
</defs>
</svg>
